<?xml version="1.0" encoding="utf-8"?>
<!-- Generator: Adobe Illustrator 25.2.3, SVG Export Plug-In . SVG Version: 6.00 Build 0)  -->
<svg version="1.1" id="レイヤー_1" xmlns="http://www.w3.org/2000/svg" xmlns:xlink="http://www.w3.org/1999/xlink" x="0px"
	 y="0px" width="795px" height="69px" viewBox="0 0 795 69" style="enable-background:new 0 0 795 69;" xml:space="preserve">
<style type="text/css">
	.st0{fill:#888888;}
	.st1{fill:#656666;}
	.st2{fill:#343433;}
	.st3{fill:#FFFFFF;}
</style>
<g>
	<path class="st0" d="M188,27.5v-1.4c0-0.1,0-0.1-0.1-0.1h-9.7c-2.8,0-4.2,1.7-4.2,4v6.9c0,1.4-0.7,2.4-2.1,2.4h-9.1
		c-0.1,0-0.1,0-0.1,0.1v1.4c0,0.1,0,0.1,0.1,0.1H173c2.8,0,4.2-1.7,4.2-4V30c0-1.4,0.7-2.4,2.1-2.4h8.7V27.5"/>
	<path class="st0" d="M159.2,26h-17.6c-0.1,0-0.1,0-0.1,0.1v1.4c0,0.1,0,0.1,0.1,0.1h16.5c1.4,0,2.1,1,2.1,2.4s-0.7,2.4-2.1,2.4H145
		c-2,0-3.6,1.7-3.6,4v4.4c0,0.1,0,0.1,0.1,0.1h3c0.1,0,0.1,0,0.1-0.1v-4.4c0-1.4,0.8-2.4,2-2.4h12.5c2.8,0,4.2-1.7,4.2-4
		C163.4,27.7,162,26,159.2,26"/>
	<path class="st0" d="M211,37.7h-3c-0.1,0-0.1,0-0.1-0.1v-10c0-1.5-1.1-2-2.6-1.1l-17.9,11c-0.7,0.4-0.9,0.9-0.8,1.3
		c0.1,0.3,0.5,0.5,1.3,0.5h16.6c0,0,0.1,0,0.1,0.1v1.4c0,0.1,0,0.1,0.1,0.1h3c0.1,0,0.1,0,0.1-0.1v-1.4c0-0.1,0-0.1,0.1-0.1h3
		c0.1,0,0.1,0,0.1-0.1L211,37.7C211.1,37.7,211,37.7,211,37.7 M204.7,37.6c0,0.1,0,0.1-0.1,0.1h-14c-0.1,0-0.2,0-0.2-0.1
		s0-0.1,0.1-0.2l13.9-8.5c0.1-0.1,0.3,0,0.3,0.1V37.6z"/>
	<path class="st0" d="M214,38.4c0.7,0,1.2,0.5,1.2,1.2s-0.5,1.2-1.2,1.2s-1.2-0.5-1.2-1.2C212.7,38.9,213.2,38.4,214,38.4 M214,40.7
		c0.6,0,1-0.5,1-1.1s-0.4-1.1-1-1.1s-1,0.5-1,1.1C212.9,40.2,213.3,40.7,214,40.7 M213.5,38.9h0.6c0.3,0,0.5,0.1,0.5,0.4
		c0,0.2-0.1,0.3-0.3,0.3l0,0c0.1,0,0.2,0.1,0.2,0.3s0.1,0.3,0.1,0.4h-0.3c0-0.1-0.1-0.3-0.1-0.4c0-0.2-0.1-0.2-0.3-0.2h-0.2v0.6
		h-0.3v-1.4C213.4,38.9,213.5,38.9,213.5,38.9z M213.7,39.5h0.2c0.2,0,0.3-0.1,0.3-0.2c0-0.2-0.1-0.2-0.3-0.2h-0.2V39.5z"/>
	<rect x="128.8" y="21" class="st0" width="0.6" height="24.8"/>
	<path class="st0" d="M77.3,40.9c2.2,0,4-1.8,4-4V30c0-1.3,1.1-2.4,2.4-2.4h7.8c0.1,0,0.1,0,0.1-0.1v-1.4c0-0.1,0-0.1-0.1-0.1h-9.3
		c-2.2,0-4,1.8-4,4v6.9c0,1.3-1.1,2.4-2.4,2.4h-7.6c-0.1,0-0.1,0-0.1,0.1v1.4c0,0.1,0,0.1,0.1,0.1H77.3z"/>
	<path class="st0" d="M94.8,31.6c0-2,0-4.7,0-5.5c0-0.1,0-0.1,0.1-0.1H116c0.1,0,0.1,0,0.1,0.1v1.4c0,0.1,0,0.1-0.1,0.1H98.1
		c-0.1,0-0.1,0-0.1,0.1v3.6c0,0.6,0.5,1.1,1.1,1.1h13.4c2.3,0,4.2,1.9,4.2,4.2s-1.9,4.2-4.2,4.2H94.9c-0.1,0-0.1,0-0.1-0.1v-1.4
		c0-0.1,0-0.1,0.1-0.1c4,0,16,0,16,0c1.5,0,2.6-1.2,2.6-2.6c0-1.5-1.2-2.7-2.7-2.7H97.2C95.9,34,94.8,32.9,94.8,31.6"/>
	<path class="st0" d="M63.5,32.4c1.3,0,2.4-1.1,2.4-2.4s-1.1-2.4-2.4-2.4H47.3c-0.1,0-0.1,0-0.1-0.1v-1.4c0-0.1,0-0.1,0.1-0.1H65
		c2.2,0,4,1.8,4,4s-1.8,4-4,4H52.7c-1.3,0-2.4,1.1-2.4,2.4v4.4c0,0.1,0,0.1-0.1,0.1h-3c-0.1,0-0.1,0-0.1-0.1v-4.4c0-2.2,1.8-4,4-4
		H63.5z"/>
	<polygon class="st0" points="118.9,39.4 118.4,39.4 118.4,39.2 119.6,39.2 119.6,39.4 119.1,39.4 119.1,40.9 118.9,40.9 	"/>
	<polygon class="st0" points="120.6,40.7 120.6,40.7 121.1,39.2 121.4,39.2 121.4,40.9 121.2,40.9 121.2,39.4 121.2,39.4 
		120.7,40.9 120.5,40.9 120,39.4 120,39.4 120,40.9 119.8,40.9 119.8,39.2 120.1,39.2 	"/>
	<path class="st0" d="M18.8,21v23.1l5.2,1.7V26.4c0-0.9,0.4-1.5,1.1-1.3c0.9,0.2,1,1.1,1,2v7.7c3.3,1.6,5.8,0,5.8-4.2
		c0-4.3-1.5-6.1-5.9-7.7C24.2,22.4,21,21.4,18.8,21"/>
	<path class="st0" d="M25,42.4l8.4-3c1-0.4,1.1-0.8,0.3-1.1s-2.2-0.2-3.1,0.2l-5.6,2v-3.2l0.3-0.1c0,0,1.6-0.6,3.9-0.8
		s5.1,0,7.3,0.9c2.5,0.8,2.7,1.9,2.1,2.7c-0.6,0.8-2.2,1.4-2.2,1.4L25,45.5V42.4z"/>
	<path class="st0" d="M9.2,42.1c-2.5-0.7-3-2.2-1.8-3.1c1.1-0.8,2.9-1.4,2.9-1.4l7.5-2.7v3L12.4,40c-1,0.3-1.1,0.8-0.3,1.1
		s2.2,0.2,3.1-0.2l2.6-0.9v2.7c-0.2,0-0.4,0.1-0.5,0.1C14.6,43.2,11.9,43,9.2,42.1"/>
	<path class="st0" d="M36.8,43.3c0.7,0,1.2,0.5,1.2,1.2s-0.5,1.2-1.2,1.2s-1.2-0.5-1.2-1.2C35.6,43.9,36.1,43.3,36.8,43.3
		 M36.8,45.6c0.6,0,1-0.5,1-1.1s-0.4-1.1-1-1.1s-1,0.5-1,1.1C35.8,45.2,36.2,45.6,36.8,45.6 M36.3,43.9h0.6c0.3,0,0.5,0.1,0.5,0.4
		c0,0.2-0.1,0.3-0.3,0.3l0,0c0.1,0,0.2,0.1,0.2,0.3s0.1,0.3,0.1,0.4h-0.3c0-0.1-0.1-0.3-0.1-0.4c0-0.2-0.1-0.2-0.3-0.2h-0.2v0.6
		h-0.3L36.3,43.9L36.3,43.9z M36.6,44.5h0.2c0.2,0,0.3-0.1,0.3-0.2c0-0.2-0.1-0.2-0.3-0.2h-0.2V44.5z"/>
</g>
<g>
	<g>
		<rect x="471.5" y="29.4" class="st0" width="2.1" height="13.1"/>
		<path class="st0" d="M463.5,40.2c-0.2-1.5-0.7-3-1.1-4.5l-3.1-11.4h-2c-1.5,5.3-3.2,10.5-4.4,15.9c-0.1-1-0.3-1.9-0.6-2.8
			l-3.6-13.1h-2.3l0,0l5.3,18.3c0.8,0,1.7,0,2.5,0l3.7-13.4c0.2-0.6,0.2-1.3,0.3-1.9c0.1,0.7,0.2,1.5,0.4,2.2l3.7,13.1h2.5l5.1-18.3
			h-2.3C466.3,29.6,464.7,34.8,463.5,40.2z"/>
		<polygon class="st0" points="407.1,32.9 419.4,32.9 419.4,21 407.1,22.7 		"/>
		<polygon class="st0" points="420.9,46.2 437.2,48.6 437.2,34.3 420.9,34.3 		"/>
		<polygon class="st0" points="407.1,44.3 419.4,46.1 419.4,34.1 407.1,34.1 		"/>
		<path class="st0" d="M472.7,23.2c-0.8-0.1-1.4,0.4-1.5,1.2v0.3c0.1,0.6,0.6,1.1,1.2,1.2c0.8,0.1,1.4-0.4,1.5-1.2
			C474,24,473.5,23.3,472.7,23.2z"/>
		<polygon class="st0" points="420.9,32.8 437.2,32.8 437.2,18.4 420.9,20.8 		"/>
		<path class="st0" d="M540.3,34.2c-1-0.6-1-2.4,0.1-3c1.6-0.9,3.6-0.3,5,0.6c-0.1-0.7,0.2-1.6-0.2-2.2c-1.2-0.5-2.5-0.6-3.8-0.5
			l0,0c-1,0.3-2,0.5-2.8,1.2c-1.5,1.1-1.7,3.6-0.4,4.9c1.3,1.4,3.4,1.6,4.9,2.7c1,0.7,0.9,2.4-0.2,2.9c-1.9,0.8-4.1,0.2-5.6-1v2.3
			c2.2,1,5,1.2,7.1-0.2c1.7-1.1,2.1-3.8,0.6-5.2C543.7,35.4,541.8,35.1,540.3,34.2z"/>
		<path class="st0" d="M531.5,40.6c-0.8-3.8-2-7.4-2.9-11.2h-1.9c-1.1,3.7-2.3,7.4-3.3,11.2c-0.1-0.6-0.1-1.2-0.3-1.8l-2.5-9.4h-2.2
			l0,0l3.9,13.1h2.1c1-3.5,2.3-7,3.2-10.6c0.8,3.6,2,7.1,2.9,10.6h2.1l3.9-13.1c-0.7,0-1.4,0-2.1,0.1
			C533.5,33.2,532.3,36.9,531.5,40.6z"/>
		<path class="st0" d="M555.9,23.9c-1.7,1.3-3.5,2.4-5.5,3.1v2.1c1.5-0.4,2.9-1.2,4.2-2.1v15.5h2V23.9H555.9L555.9,23.9z"/>
		<path class="st0" d="M569,25.8c-1.1-1.5-3.1-2.2-4.9-1.9l0,0c-2.1,0.2-3.7,1.9-4.3,3.8c-1,2.8-1.1,5.9-0.7,8.9
			c0.3,2,1,4.1,2.7,5.4c2.1,1.5,5.3,1,6.9-1c1.7-2.2,2-5,2-7.7C570.7,30.7,570.6,27.9,569,25.8z M567.4,39.6
			c-0.7,1.3-2.5,1.9-3.8,1.2c-1.2-0.5-1.8-1.8-2.1-3c-0.6-2.4-0.5-4.9-0.3-7.4c0.3-1.8,0.8-3.9,2.6-4.7l0,0c1.2-0.5,2.7,0,3.4,1.1
			c1.2,1.9,1.3,4.1,1.3,6.3C568.6,35.4,568.5,37.7,567.4,39.6z"/>
		<path class="st0" d="M500.2,31.2c-1.5-2.6-5.3-2.7-7.5-0.9c-1.7,1.4-2.4,3.6-2.4,5.7c-0.1,2.1,0.4,4.4,2,5.8
			c2.3,2,6.3,1.4,7.7-1.3l0.1,2.1h2.1V23.2h-2L500.2,31.2z M500.2,36.3c0,1.3-0.3,2.7-1.2,3.7c-1.4,1.6-4.2,1.6-5.5-0.1
			c-1.2-1.6-1.3-3.8-0.9-5.6c0.3-1.6,1.4-3.1,3.1-3.3l0,0c1.3-0.3,2.8,0.2,3.7,1.4C500.3,33.3,500.2,34.9,500.2,36.3z"/>
		<path class="st0" d="M487.8,33.9c-0.1-1.7-0.7-3.8-2.5-4.5c-2.2-1-5,0-6.2,2.1l0,0v-2.1H477v13.1h2.1c0-2.7,0-5.5,0-8.2
			c0.1-2.1,2.2-4.1,4.4-3.4c1.5,0.3,2.1,2,2.1,3.4c0.1,2.8,0,5.5,0,8.3c0.7,0,1.4,0,2.1,0C487.8,39.6,487.9,36.8,487.8,33.9z"/>
		<path class="st0" d="M515.4,30.6c-1.4-1.3-3.4-1.6-5.3-1.5l0,0c-1.2,0.3-2.3,0.6-3.2,1.4c-2.6,2.2-2.9,6.3-1.4,9.3
			c1.8,3.5,7,4.1,9.9,1.5c1.3-1.3,2-3.2,2.1-5C517.4,34.2,516.9,32,515.4,30.6z M515.2,37c-0.1,1.5-0.8,3.1-2.2,3.8
			c-2.1,1.1-5.1,0.1-5.8-2.3c-0.9-2.6-0.4-6.6,2.6-7.5l0,0c1.5-0.4,3.2-0.2,4.2,1C515.2,33.3,515.3,35.3,515.2,37z"/>
	</g>
</g>
<g>
	<g>
		<path class="st0" d="M319.9,24.7c0-1-0.1-1.9-0.4-2.7c-0.3-0.8-0.7-1.5-1.3-2.1c-0.6-0.6-1.2-1.1-2-1.4c-0.7-0.3-1.6-0.5-2.5-0.5
			s-1.8,0.2-2.5,0.5s-1.4,0.8-2,1.4s-1,1.3-1.3,2.1c-0.3,0.8-0.4,1.7-0.4,2.7s0.1,1.9,0.4,2.7c0.3,0.8,0.7,1.5,1.3,2.1
			c0.6,0.6,1.2,1.1,2,1.4c0.7,0.3,1.6,0.5,2.5,0.5s1.8-0.2,2.5-0.5s1.4-0.8,2-1.4s1-1.3,1.3-2.1C319.7,26.5,319.9,25.6,319.9,24.7
			 M316.7,28.2L316.7,28.2c-0.8,0.9-1.8,1.3-3.1,1.3c-1.3,0-2.3-0.4-3.1-1.3c-0.8-0.9-1.2-2.1-1.2-3.6s0.4-2.7,1.2-3.6
			c0.8-0.9,1.8-1.3,3.1-1.3c1.3,0,2.3,0.4,3.1,1.3c0.8,0.9,1.1,2.1,1.1,3.6C317.8,26.2,317.5,27.4,316.7,28.2 M306.2,25.6
			c-0.4-0.5-0.9-0.9-1.6-1.2c1.1-0.6,1.7-1.5,1.7-2.8c0-1-0.3-1.8-1-2.4s-1.7-0.9-3-0.9h-5.7v5.4h-1.7l-1.2,1.6h2.8V31h6
			c1.4,0,2.4-0.3,3.2-1c0.7-0.6,1.1-1.5,1.1-2.7C306.8,26.7,306.6,26.1,306.2,25.6 M298.5,20h3.7c0.7,0,1.3,0.2,1.6,0.5
			c0.4,0.3,0.6,0.8,0.6,1.3c0,0.7-0.2,1.1-0.6,1.5c-0.4,0.3-0.9,0.5-1.7,0.5h-3.7V20H298.5z M304.2,28.8c-0.4,0.3-1,0.5-1.8,0.5
			h-3.9v-4h3.9c0.8,0,1.4,0.2,1.8,0.5s0.6,0.8,0.6,1.5C304.8,28,304.6,28.5,304.2,28.8 M272.5,44.8c-2.7,2.3-6.2,3.7-10,3.7
			s-7.3-1.4-10-3.7c-2.4-2.4,5.4-10.9,9.9-14.4c0,0,0,0,0.1,0l0,0C267.1,33.9,274.8,42.4,272.5,44.8 M250.5,42.5
			C250.5,42.6,250.5,42.6,250.5,42.5C250.5,42.6,250.4,42.6,250.5,42.5c-2-2.5-3.2-5.7-3.2-9.1c0-4.2,1.7-8,4.5-10.8
			c0,0,0,0,0.1-0.1c0.3-0.1,1.8-0.6,6.4,4c0,0,0,0,0,0.1l0,0C255.3,30.3,249.4,39,250.5,42.5 M273.2,22.7c2.8,2.7,4.5,6.5,4.5,10.8
			c0,3.5-1.2,6.6-3.1,9.2h-0.1c0,0,0,0,0-0.1c1.2-3.6-4.8-12.2-7.8-15.9l0,0c0,0,0,0,0-0.1C271.3,22,272.8,22.5,273.2,22.7
			C273.1,22.6,273.1,22.6,273.2,22.7 M324.9,25.9l-3.7,5.1H319l4.8-6.6l-4.4-6.1h2.2l3.4,4.6l3.4-4.6h2.2l-4.4,6.1L331,31h-2.2
			L324.9,25.9z M254.6,20.6C254.6,20.5,254.6,20.5,254.6,20.6c2.3-1.5,4.9-2.3,7.9-2.3c3.1,0,5.6,0.8,7.9,2.2c0,0,0,0,0,0.1
			c0,0,0,0-0.1,0c-2.9-0.6-7.4,1.9-7.8,2.2l0,0l0,0C262,22.5,257.6,20,254.6,20.6L254.6,20.6 M290.7,24.4l4.8,6.6h-2.2l-3.7-5.1
			l-3.7,5.1h-2.2l4.8-6.6l-4.4-6.1h2.2l3.4,4.6l3.4-4.6h2.2L290.7,24.4z M295.6,35.8h9.1v1.8h-7.2v3.7h6.3v1.6h-6.3v3.9h7.2v1.8
			h-9.1V35.8z M294,45.1c0,1.2-0.4,2.1-1.3,2.8s-2.1,1-3.6,1c-1.7,0-3-0.4-3.9-1.1c-0.9-0.8-1.4-1.9-1.4-3.4l0,0h1.9l0,0
			c0,0.9,0.3,1.7,0.9,2.1c0.6,0.5,1.4,0.7,2.6,0.7c0.9,0,1.7-0.2,2.2-0.5c0.5-0.4,0.8-0.9,0.8-1.6c0-0.6-0.2-1-0.6-1.3
			s-1.2-0.6-2.2-0.8l-1.1-0.2c-1.3-0.3-2.3-0.7-3-1.3s-1-1.4-1-2.5c0-1,0.4-1.9,1.2-2.5c0.8-0.6,1.9-0.9,3.3-0.9
			c1.7,0,2.9,0.4,3.8,1.1c0.8,0.7,1.3,1.7,1.3,3l0,0H292l0,0c-0.1-0.8-0.3-1.4-0.8-1.8c-0.5-0.4-1.3-0.6-2.3-0.6
			c-0.8,0-1.5,0.2-1.9,0.5s-0.7,0.7-0.7,1.3s0.2,1,0.6,1.3s1.1,0.6,2.2,0.8l1.1,0.2c1.4,0.3,2.5,0.8,3.1,1.3
			C293.7,43.3,294,44.1,294,45.1 M316.4,47l-0.1-2c0-0.7-0.2-1.3-0.5-1.7s-0.7-0.7-1.3-0.9c0.7-0.2,1.2-0.6,1.5-1.1
			c0.4-0.5,0.6-1.2,0.6-2c0-1.1-0.4-2-1.2-2.6c-0.8-0.6-1.9-0.9-3.2-0.9h-5.6v12.7h1.9v-5.2h3.7c0.7,0,1.3,0.2,1.6,0.5
			c0.3,0.3,0.5,0.9,0.5,1.7l0.1,1.4c0,0.7,0.1,1.3,0.4,1.6l0,0h2l0,0C316.6,48.2,316.5,47.7,316.4,47 M314,41.2
			c-0.4,0.4-1,0.6-1.7,0.6h-3.7v-4.2h3.5c0.8,0,1.4,0.2,1.9,0.5c0.4,0.3,0.6,0.9,0.6,1.5C314.6,40.2,314.4,40.8,314,41.2
			 M375.9,45.1c0,1.2-0.4,2.1-1.3,2.8s-2.1,1-3.6,1c-1.7,0-3-0.4-3.9-1.1c-0.9-0.8-1.4-1.9-1.4-3.4l0,0h1.9l0,0
			c0,0.9,0.3,1.7,0.9,2.1c0.6,0.5,1.4,0.7,2.6,0.7c0.9,0,1.7-0.2,2.2-0.5c0.5-0.4,0.8-0.9,0.8-1.6c0-0.6-0.2-1-0.6-1.3
			s-1.2-0.6-2.2-0.8l-1.1-0.2c-1.3-0.3-2.3-0.7-3-1.3s-1-1.4-1-2.5c0-1,0.4-1.9,1.2-2.5c0.8-0.6,1.9-0.9,3.3-0.9
			c1.7,0,2.9,0.4,3.8,1.1c0.8,0.7,1.3,1.7,1.3,3l0,0h-1.9l0,0c-0.1-0.8-0.3-1.4-0.8-1.8c-0.5-0.4-1.3-0.6-2.3-0.6
			c-0.8,0-1.5,0.2-1.9,0.5s-0.7,0.7-0.7,1.3s0.2,1,0.6,1.3s1.1,0.6,2.2,0.8l1.1,0.2c1.4,0.3,2.5,0.8,3.1,1.3
			C375.6,43.3,375.9,44.1,375.9,45.1 M353.5,42l4.8,6.6h-2.2l-3.7-5.1l-3.7,5.1h-2.2l4.8-6.6l-4.4-6.1h2.2l3.4,4.6l3.4-4.6h2.2
			L353.5,42z M361.5,34.2h1v15.9h-1V34.2z M318.4,35.8h1.9v12.7h-1.9V35.8z M342.7,45.1c0,1.2-0.4,2.1-1.3,2.8s-2.1,1-3.6,1
			c-1.7,0-3-0.4-3.9-1.1c-0.9-0.8-1.4-1.9-1.4-3.4l0,0h1.9l0,0c0,0.9,0.3,1.7,0.9,2.1c0.6,0.5,1.4,0.7,2.6,0.7
			c0.9,0,1.7-0.2,2.2-0.5c0.5-0.4,0.8-0.9,0.8-1.6c0-0.6-0.2-1-0.6-1.3s-1.2-0.6-2.2-0.8l-1.1-0.2c-1.3-0.3-2.3-0.7-3-1.3
			s-1-1.4-1-2.5c0-1,0.4-1.9,1.2-2.5c0.8-0.6,1.9-0.9,3.3-0.9c1.7,0,2.9,0.4,3.8,1.1c0.8,0.7,1.3,1.7,1.3,3l0,0h-1.9l0,0
			c-0.1-0.8-0.3-1.4-0.8-1.8c-0.5-0.4-1.3-0.6-2.3-0.6c-0.8,0-1.5,0.2-1.9,0.5s-0.7,0.7-0.7,1.3s0.2,1,0.6,1.3s1.1,0.6,2.2,0.8
			l1.1,0.2c1.4,0.3,2.5,0.8,3.1,1.3C342.4,43.3,342.7,44.1,342.7,45.1 M322.2,35.8h9.1v1.8h-7.2v3.7h6.3v1.6h-6.3v3.9h7.2v1.8h-9.1
			V35.8z"/>
	</g>
</g>
<g>
	<path class="st0" d="M617.6,15c-9.7,0-17.6,7.5-18.4,17.1l9.9,4.1c0.8-0.6,1.8-0.9,2.9-0.9c0.1,0,0.2,0,0.3,0l4.4-6.4v-0.1
		c0-3.9,3.1-7,7-7c3.8,0,7,3.1,7,7s-3.1,7-7,7c-0.1,0-0.1,0-0.2,0l-6.3,4.5c0,0.1,0,0.2,0,0.2c0,2.9-2.3,5.3-5.2,5.3
		c-2.5,0-4.6-1.8-5.1-4.2l-7.1-2.9c2.2,7.8,9.3,13.5,17.7,13.5c10.2,0,18.4-8.3,18.4-18.6C636,23.3,627.8,15,617.6,15"/>
	<path class="st0" d="M610.8,43.2l-2.3-0.9c0.4,0.8,1.1,1.5,2,1.9c2,0.8,4.3-0.1,5.1-2.1c0.4-1,0.4-2,0-3s-1.1-1.7-2.1-2.1
		c-1-0.4-2-0.4-2.9,0l2.3,1c1.5,0.6,2.2,2.3,1.6,3.8C613.9,43.2,612.2,43.9,610.8,43.2"/>
	<path class="st0" d="M620.2,28.8c0-1.9,1.6-3.5,3.5-3.5s3.5,1.6,3.5,3.5s-1.6,3.5-3.5,3.5S620.2,30.8,620.2,28.8 M628.3,28.8
		c0-2.6-2.1-4.7-4.6-4.7c-2.6,0-4.6,2.1-4.6,4.7s2.1,4.7,4.6,4.7S628.3,31.4,628.3,28.8"/>
	<path class="st0" d="M655.4,27.9l-1.2,2.1c-0.9-0.7-2.2-1-3.3-1c-1.2,0-2,0.5-2,1.5c0,1.1,1.4,1.4,3.4,2.1c2.2,0.8,3.5,1.7,3.5,3.7
		c0,2.8-2.2,4.3-5.3,4.3c-1.5,0-3.3-0.4-4.7-1.3l0.9-2.4c1.1,0.6,2.5,1,3.7,1c1.6,0,2.4-0.6,2.4-1.5c0-1-1.2-1.3-3.1-2
		c-2.2-0.7-3.7-1.7-3.7-3.9c0-2.5,2-4,4.9-4C652.9,26.6,654.5,27.2,655.4,27.9"/>
	<polygon class="st0" points="664.7,29.3 664.7,40.4 661.9,40.4 661.9,29.3 657.8,29.3 657.8,26.8 668.8,26.8 668.8,29.3 	"/>
	<polygon class="st0" points="674.8,29.2 674.8,32.3 680.2,32.3 680.2,34.8 674.8,34.8 674.8,37.9 681,37.9 681,40.4 672,40.4 
		672,26.8 681,26.8 681,29.2 	"/>
	<path class="st0" d="M689.9,30.1l-1.8,5.4h3.7L689.9,30.1z M687.3,37.8l-0.9,2.6h-3l5.1-13.6h2.8l5.2,13.6h-3.1l-0.9-2.6H687.3z"/>
	<polygon class="st0" points="711.1,32.1 707.4,40 705.8,40 702.2,32.1 702.2,40.4 699.4,40.4 699.4,26.8 702.1,26.8 706.7,36.6 
		711,26.8 713.8,26.8 713.8,40.4 711.1,40.4 	"/>
	<path class="st0" d="M717,28.4h0.3c0.2,0,0.3-0.1,0.3-0.3c0-0.2-0.1-0.3-0.3-0.3H717V28.4z M717.4,27.6c0.5,0,0.6,0.3,0.6,0.5
		c0,0.3-0.1,0.4-0.3,0.5l0.4,0.8h-0.4l-0.4-0.7H717v0.7h-0.3v-1.9h0.7V27.6z M715.8,28.5c0,1,0.7,1.6,1.6,1.6c0.9,0,1.5-0.6,1.5-1.6
		s-0.7-1.6-1.5-1.6C716.5,26.9,715.8,27.6,715.8,28.5 M719.2,28.5c0,1.2-0.9,1.9-1.9,1.9s-1.9-0.7-1.9-1.9s0.9-1.9,1.9-1.9
		S719.2,27.4,719.2,28.5"/>
</g>
<g>
	<g>
		<g>
			<path class="st1" d="M751.5,63.8h32.2c2.6,0,3.6-1,3.6-3.6V28.7c0-0.3,0-0.6,0-0.8c-0.1-0.6-0.1-1.1-0.6-1.8
				c-0.1-0.1-0.6-0.5-0.6-0.5c-0.3-0.1-0.5-0.2-0.8-0.4l-15.9-6.7c-0.8-0.4-1.2-0.5-1.8-0.5l0,0l0,0l0,0l0,0c-0.6,0-0.9,0.1-1.8,0.5
				L750,25.3c-0.3,0.1-0.5,0.2-0.8,0.4c0,0-0.5,0.4-0.6,0.5c-0.5,0.6-0.5,1.2-0.6,1.8c0,0.3,0,0.5,0,0.8v31.6
				C747.9,62.9,748.9,63.8,751.5,63.8z"/>
		</g>
	</g>
	<g>
		<path class="st2" d="M783.7,3.7h-32.2c-2.6,0-3.6,1-3.6,3.6v31.6c0,0.3,0,0.6,0,0.8c0.1,0.6,0.1,1.1,0.6,1.8
			c0.1,0.1,0.6,0.5,0.6,0.5c0.3,0.1,0.5,0.2,0.8,0.4l15.9,6.7c0.8,0.4,1.2,0.5,1.8,0.5l0,0l0,0l0,0l0,0c0.6,0,0.9-0.1,1.8-0.5
			l15.9-6.7c0.3-0.1,0.5-0.2,0.8-0.4c0,0,0.5-0.4,0.6-0.5c0.5-0.6,0.5-1.2,0.6-1.8c0-0.3,0-0.5,0-0.8V7.3
			C787.3,4.7,786.3,3.7,783.7,3.7z"/>
		<path class="st3" d="M756.4,19.6h3.1v-2.4h-3.1v-5h3.3V9.8h-5.9v17.5h6v-2.4h-3.3L756.4,19.6L756.4,19.6z"/>
		<path class="st3" d="M778.9,20.1v4c0,0.7-0.3,1-1,1h-0.5c-0.7,0-1-0.3-1-1V13c0-0.7,0.3-1,1-1h0.4c0.7,0,1,0.3,1,1v3.4h2.6v-3.6
			c0-2.2-1-3.2-3.2-3.2h-1.3c-2.2,0-3.2,1.1-3.2,3.3v11.3c0,2.2,1.1,3.3,3.2,3.3h1.3c2.2,0,3.2-1.1,3.2-3.3v-4.1H778.9z"/>
		<path class="st3" d="M769.6,27.3h2.7V9.8h-2.7V27.3z"/>
		<path class="st3" d="M765.7,17.6c0,0.7-0.3,1-1,1h-1.1v-6.5h1.1c0.7,0,1,0.3,1,1V17.6z M765.2,9.8H761v17.5h2.7V21h1.5
			c2.2,0,3.2-1.1,3.2-3.3V13C768.4,10.9,767.3,9.8,765.2,9.8"/>
		<path class="st3" d="M760,43.2h15.3l-7.8,2.6L760,43.2z"/>
	</g>
	<path class="st3" d="M759.7,52.3h4.6v1.3h-1.6v4.6h-1.5v-4.6h-1.6L759.7,52.3L759.7,52.3z"/>
	<path class="st3" d="M757.7,54.2h1.4c0-0.5,0.1-1.1-1-1.8c-0.8-0.5-2-0.2-2.5,0c-0.8,0.4-1,1-1,1.7c0,1.1,0.8,1.3,1.6,1.6
		c0.5,0.2,1,0.3,1.4,0.6c0.1,0.1,0.2,0.4-0.1,0.5c-0.4,0.2-0.9,0.2-1.3-0.1c-0.2-0.1-0.2-0.3-0.2-0.4h-1.4c0,0.5,0.1,0.9,0.4,1.3
		c0.5,0.5,1.1,0.7,1.8,0.7c0.8,0.1,1.3-0.1,1.8-0.4c0.4-0.3,0.7-0.7,0.8-1.2c0-0.3,0.1-0.7-0.3-1.2c-0.3-0.3-0.9-0.7-1.7-0.9
		c-0.4-0.1-0.9-0.3-1-0.5s0.1-0.4,0.2-0.5c0.2-0.1,0.5-0.1,0.8,0C757.5,53.7,757.7,53.9,757.7,54.2L757.7,54.2z"/>
	<path class="st3" d="M765,54.1v2c0,2.8,4.8,2.8,4.8,0v-2C769.8,51.4,765,51.6,765,54.1z M767.4,53.4c0.5,0,0.9,0.3,0.9,0.9V56
		c0,1.1-1.9,1.1-1.9,0v-1.7C766.4,53.7,766.9,53.4,767.4,53.4L767.4,53.4z"/>
	<path class="st3" d="M770.9,52.3v5.9h1.5v-2.1h0.6l1.2,2.1h1.5v-0.5l-1.1-1.8c1.5-0.9,1.2-3.6-0.8-3.6L770.9,52.3z M772.4,53.6h0.8
		c1,0,0.9,1.2,0,1.2h-0.8V53.6z"/>
	<path class="st3" d="M776.7,52.3h3.9v1.2h-2.4v1.1h2v1.2h-2.1V57h2.5v1.2h-3.9V52.3z"/>
	<g>
		<path class="st3" d="M758.7,34.2c-0.5,0.4-1,0.6-1.5,0.7c-0.5,0-1,0.1-1.5,0c-1.1-0.3-2.1-1.3-2-2.5c-0.1-1.3,0.8-2.5,2-2.8
			c1-0.2,2.1-0.1,2.9,0.7c-0.3,0.3-0.6,0.7-0.8,1c-0.9-0.9-2.5-0.6-2.7,0.8c-0.1,0.7,0.2,1.4,0.9,1.7c0.5,0.1,1,0.1,1.4-0.2v-0.7
			h-1.1v-1.1h2.4L758.7,34.2L758.7,34.2L758.7,34.2z M765.1,34.8h-1.4c-0.1-0.3-0.3-0.7-0.4-1h-2.1c-0.1,0.3-0.3,0.7-0.4,1h-1.5
			c0.8-1.8,1.5-3.6,2.3-5.4h1.3C763.6,31.3,764.4,33.1,765.1,34.8L765.1,34.8z M762.8,32.7c-0.2-0.5-0.4-1-0.6-1.5
			c-0.2,0.5-0.4,1-0.6,1.6L762.8,32.7L762.8,32.7z M771.2,34.8h-1.3v-3.1c-0.5,0.7-0.9,1.4-1.4,2.1l0,0c-0.5-0.7-0.9-1.4-1.4-2.1
			v3.1h-1.4v-5.3h1.5c0.4,0.7,0.9,1.4,1.3,2.1c0.4-0.7,0.9-1.4,1.3-2.1h1.5L771.2,34.8L771.2,34.8z M776.5,34.8h-4.2v-5.3h4.2v1.2
			h-2.8v0.9h2.5v1.1h-2.5v0.9h2.8V34.8L776.5,34.8z M781.6,33.4c0,0.6-0.5,1.2-1.1,1.4c-0.4,0.2-0.8,0.1-1.2,0.1
			c-0.8,0-1.6-0.3-2.2-0.8c0.3-0.3,0.5-0.6,0.8-0.9c0.5,0.4,1.2,0.7,1.9,0.6c0.7-0.1,0.6-0.7,0-0.8c-0.5-0.2-1.1-0.2-1.6-0.5
			c-0.3-0.2-0.6-0.4-0.7-0.8c-0.1-0.3-0.1-0.6,0-0.9c0.1-0.6,0.6-1,1.1-1.1c1-0.3,2.1-0.1,2.9,0.6c-0.2,0.3-0.5,0.7-0.7,1
			c-0.5-0.3-1.5-0.8-2-0.3c-0.2,0.4,0.4,0.6,0.7,0.7C780.5,31.8,781.8,32.1,781.6,33.4L781.6,33.4z"/>
	</g>
</g>
</svg>
